<?xml version="1.0" encoding="UTF-8" standalone="no"?>
<!DOCTYPE svg PUBLIC "-//W3C//DTD SVG 1.1//EN"
 "http://www.w3.org/Graphics/SVG/1.1/DTD/svg11.dtd">
<!-- Generated by graphviz version 2.40.1 (20161225.0304)
 -->
<!-- Title: callgraph Pages: 1 -->
<svg width="2792pt" height="421pt"
 viewBox="0.00 0.00 2791.67 420.57" xmlns="http://www.w3.org/2000/svg" xmlns:xlink="http://www.w3.org/1999/xlink">
<g id="graph0" class="graph" transform="scale(1 1) rotate(0) translate(4 416.568)">
<title>callgraph</title>
<polygon fill="#ffffff" stroke="transparent" points="-4,4 -4,-416.568 2787.669,-416.568 2787.669,4 -4,4"/>
<!-- void _ShinyManager_appendTicksToCurNode(ShinyManager*) -->
<g id="node1" class="node">
<title>void _ShinyManager_appendTicksToCurNode(ShinyManager*)</title>
<ellipse fill="none" stroke="#000000" cx="2086.0277" cy="-72" rx="239.3577" ry="18"/>
<text text-anchor="middle" x="2086.0277" y="-68.3" font-family="Times,serif" font-size="14.00" fill="#000000">void _ShinyManager_appendTicksToCurNode(ShinyManager*)</text>
</g>
<!-- void ShinyNode_appendTicks(ShinyNode*, shinytick_t) -->
<g id="node2" class="node">
<title>void ShinyNode_appendTicks(ShinyNode*, shinytick_t)</title>
<ellipse fill="none" stroke="#000000" cx="2572.4377" cy="-72" rx="211.4628" ry="18"/>
<text text-anchor="middle" x="2572.4377" y="-68.3" font-family="Times,serif" font-size="14.00" fill="#000000">void ShinyNode_appendTicks(ShinyNode*, shinytick_t)</text>
</g>
<!-- void _ShinyManager_appendTicksToCurNode(ShinyManager*)&#45;&gt;void ShinyNode_appendTicks(ShinyNode*, shinytick_t) -->
<g id="edge1" class="edge">
<title>void _ShinyManager_appendTicksToCurNode(ShinyManager*)&#45;&gt;void ShinyNode_appendTicks(ShinyNode*, shinytick_t)</title>
<path fill="none" stroke="#000000" d="M2325.314,-72C2333.761,-72 2342.2142,-72 2350.633,-72"/>
<polygon fill="#000000" stroke="#000000" points="2350.8822,-75.5001 2360.8822,-72 2350.8822,-68.5001 2350.8822,-75.5001"/>
</g>
<!-- void ShinyManager_beginNode(ShinyManager*, ShinyNode*) -->
<g id="node3" class="node">
<title>void ShinyManager_beginNode(ShinyManager*, ShinyNode*)</title>
<ellipse fill="none" stroke="#000000" cx="1575.5698" cy="-126" rx="235.0585" ry="18"/>
<text text-anchor="middle" x="1575.5698" y="-122.3" font-family="Times,serif" font-size="14.00" fill="#000000">void ShinyManager_beginNode(ShinyManager*, ShinyNode*)</text>
</g>
<!-- void ShinyManager_beginNode(ShinyManager*, ShinyNode*)&#45;&gt;void _ShinyManager_appendTicksToCurNode(ShinyManager*) -->
<g id="edge3" class="edge">
<title>void ShinyManager_beginNode(ShinyManager*, ShinyNode*)&#45;&gt;void _ShinyManager_appendTicksToCurNode(ShinyManager*)</title>
<path fill="none" stroke="#000000" d="M1713.707,-111.3868C1782.7961,-104.0781 1866.4998,-95.2233 1937.0297,-87.7621"/>
<polygon fill="#000000" stroke="#000000" points="1937.7605,-91.2044 1947.3368,-86.6717 1937.0241,-84.2433 1937.7605,-91.2044"/>
</g>
<!-- void ShinyNode_beginEntry(ShinyNode*) -->
<g id="node4" class="node">
<title>void ShinyNode_beginEntry(ShinyNode*)</title>
<ellipse fill="none" stroke="#000000" cx="2086.0277" cy="-126" rx="161.3716" ry="18"/>
<text text-anchor="middle" x="2086.0277" y="-122.3" font-family="Times,serif" font-size="14.00" fill="#000000">void ShinyNode_beginEntry(ShinyNode*)</text>
</g>
<!-- void ShinyManager_beginNode(ShinyManager*, ShinyNode*)&#45;&gt;void ShinyNode_beginEntry(ShinyNode*) -->
<g id="edge2" class="edge">
<title>void ShinyManager_beginNode(ShinyManager*, ShinyNode*)&#45;&gt;void ShinyNode_beginEntry(ShinyNode*)</title>
<path fill="none" stroke="#000000" d="M1811.0013,-126C1845.8307,-126 1881.1548,-126 1914.3581,-126"/>
<polygon fill="#000000" stroke="#000000" points="1914.5916,-129.5001 1924.5916,-126 1914.5916,-122.5001 1914.5916,-129.5001"/>
</g>
<!-- void ShinyManager_lookupAndBeginNode(ShinyManager*, _ShinyNode**, ShinyZone*) -->
<g id="node5" class="node">
<title>void ShinyManager_lookupAndBeginNode(ShinyManager*, _ShinyNode**, ShinyZone*)</title>
<ellipse fill="none" stroke="#000000" cx="971.5202" cy="-126" rx="332.5411" ry="18"/>
<text text-anchor="middle" x="971.5202" y="-122.3" font-family="Times,serif" font-size="14.00" fill="#000000">void ShinyManager_lookupAndBeginNode(ShinyManager*, _ShinyNode**, ShinyZone*)</text>
</g>
<!-- void ShinyManager_lookupAndBeginNode(ShinyManager*, _ShinyNode**, ShinyZone*)&#45;&gt;void ShinyManager_beginNode(ShinyManager*, ShinyNode*) -->
<g id="edge4" class="edge">
<title>void ShinyManager_lookupAndBeginNode(ShinyManager*, _ShinyNode**, ShinyZone*)&#45;&gt;void ShinyManager_beginNode(ShinyManager*, ShinyNode*)</title>
<path fill="none" stroke="#000000" d="M1304.4661,-126C1312.9243,-126 1321.3498,-126 1329.7157,-126"/>
<polygon fill="#000000" stroke="#000000" points="1329.8889,-129.5001 1339.8889,-126 1329.8888,-122.5001 1329.8889,-129.5001"/>
</g>
<!-- void ShinyManager_endCurNode(ShinyManager*) -->
<g id="node6" class="node">
<title>void ShinyManager_endCurNode(ShinyManager*)</title>
<ellipse fill="none" stroke="#000000" cx="971.5202" cy="-72" rx="192.2659" ry="18"/>
<text text-anchor="middle" x="971.5202" y="-68.3" font-family="Times,serif" font-size="14.00" fill="#000000">void ShinyManager_endCurNode(ShinyManager*)</text>
</g>
<!-- void ShinyManager_endCurNode(ShinyManager*)&#45;&gt;void _ShinyManager_appendTicksToCurNode(ShinyManager*) -->
<g id="edge5" class="edge">
<title>void ShinyManager_endCurNode(ShinyManager*)&#45;&gt;void _ShinyManager_appendTicksToCurNode(ShinyManager*)</title>
<path fill="none" stroke="#000000" d="M1164.0626,-72C1350.1917,-72 1633.1192,-72 1836.4468,-72"/>
<polygon fill="#000000" stroke="#000000" points="1836.6755,-75.5001 1846.6755,-72 1836.6755,-68.5001 1836.6755,-75.5001"/>
</g>
<!-- ShinyEndNodeOnDestruction::~ShinyEndNodeOnDestruction() -->
<g id="node7" class="node">
<title>ShinyEndNodeOnDestruction::~ShinyEndNodeOnDestruction()</title>
<ellipse fill="#ff0000" stroke="#ff0000" cx="365.5208" cy="-18" rx="237.4581" ry="18"/>
<text text-anchor="middle" x="365.5208" y="-14.3" font-family="Times,serif" font-size="14.00" fill="#000000">ShinyEndNodeOnDestruction::~ShinyEndNodeOnDestruction()</text>
</g>
<!-- ShinyEndNodeOnDestruction::~ShinyEndNodeOnDestruction()&#45;&gt;void ShinyManager_endCurNode(ShinyManager*) -->
<g id="edge6" class="edge">
<title>ShinyEndNodeOnDestruction::~ShinyEndNodeOnDestruction()&#45;&gt;void ShinyManager_endCurNode(ShinyManager*)</title>
<path fill="none" stroke="#000000" d="M519.6155,-31.7312C612.3939,-39.9986 729.9612,-50.4749 821.9219,-58.6694"/>
<polygon fill="#000000" stroke="#000000" points="821.8822,-62.1797 832.1534,-59.5812 822.5035,-55.2073 821.8822,-62.1797"/>
</g>
<!-- void YetMoreMath() -->
<g id="node8" class="node">
<title>void YetMoreMath()</title>
<ellipse fill="none" stroke="#000000" cx="365.5208" cy="-234" rx="85.5853" ry="18"/>
<text text-anchor="middle" x="365.5208" y="-230.3" font-family="Times,serif" font-size="14.00" fill="#000000">void YetMoreMath()</text>
</g>
<!-- void YetMoreMath()&#45;&gt;void ShinyManager_lookupAndBeginNode(ShinyManager*, _ShinyNode**, ShinyZone*) -->
<g id="edge8" class="edge">
<title>void YetMoreMath()&#45;&gt;void ShinyManager_lookupAndBeginNode(ShinyManager*, _ShinyNode**, ShinyZone*)</title>
<path fill="none" stroke="#000000" d="M451.3175,-235.0262C497.6048,-232.9455 554.89,-226.0278 602.7497,-207 621.3347,-199.6111 620.3456,-187.8286 638.7497,-180 679.9334,-162.4816 726.2041,-150.6107 770.8484,-142.5765"/>
<polygon fill="#000000" stroke="#000000" points="771.6954,-145.9818 780.947,-140.8187 770.4949,-139.0855 771.6954,-145.9818"/>
</g>
<!-- ShinyManager&amp; _ZTW14Shiny_instance() -->
<g id="node9" class="node">
<title>ShinyManager&amp; _ZTW14Shiny_instance()</title>
<ellipse fill="none" stroke="#000000" cx="971.5202" cy="-207" rx="165.1707" ry="18"/>
<text text-anchor="middle" x="971.5202" y="-203.3" font-family="Times,serif" font-size="14.00" fill="#000000">ShinyManager&amp; _ZTW14Shiny_instance()</text>
</g>
<!-- void YetMoreMath()&#45;&gt;ShinyManager&amp; _ZTW14Shiny_instance() -->
<g id="edge7" class="edge">
<title>void YetMoreMath()&#45;&gt;ShinyManager&amp; _ZTW14Shiny_instance()</title>
<path fill="none" stroke="#000000" d="M449.464,-230.2599C541.9006,-226.1415 692.7697,-219.4196 808.6102,-214.2584"/>
<polygon fill="#000000" stroke="#000000" points="808.8131,-217.7529 818.6474,-213.8112 808.5015,-210.7598 808.8131,-217.7529"/>
</g>
<!-- void YetAnotherMath() -->
<g id="node10" class="node">
<title>void YetAnotherMath()</title>
<ellipse fill="none" stroke="#000000" cx="365.5208" cy="-180" rx="94.7833" ry="18"/>
<text text-anchor="middle" x="365.5208" y="-176.3" font-family="Times,serif" font-size="14.00" fill="#000000">void YetAnotherMath()</text>
</g>
<!-- void YetAnotherMath()&#45;&gt;void ShinyManager_lookupAndBeginNode(ShinyManager*, _ShinyNode**, ShinyZone*) -->
<g id="edge10" class="edge">
<title>void YetAnotherMath()&#45;&gt;void ShinyManager_lookupAndBeginNode(ShinyManager*, _ShinyNode**, ShinyZone*)</title>
<path fill="none" stroke="#000000" d="M451.7021,-172.3205C539.0102,-164.5405 676.7547,-152.2663 788.5192,-142.307"/>
<polygon fill="#000000" stroke="#000000" points="788.9158,-145.7857 798.5656,-141.4118 788.2944,-138.8133 788.9158,-145.7857"/>
</g>
<!-- void YetAnotherMath()&#45;&gt;ShinyManager&amp; _ZTW14Shiny_instance() -->
<g id="edge9" class="edge">
<title>void YetAnotherMath()&#45;&gt;ShinyManager&amp; _ZTW14Shiny_instance()</title>
<path fill="none" stroke="#000000" d="M458.2187,-184.1301C551.1517,-188.2707 696.1668,-194.7318 808.3886,-199.7318"/>
<polygon fill="#000000" stroke="#000000" points="808.3117,-203.2317 818.4576,-200.1804 808.6233,-196.2386 808.3117,-203.2317"/>
</g>
<!-- int main() -->
<g id="node11" class="node">
<title>int main()</title>
<ellipse fill="#ff0000" stroke="#ff0000" cx="46.1459" cy="-207" rx="46.2923" ry="18"/>
<text text-anchor="middle" x="46.1459" y="-203.3" font-family="Times,serif" font-size="14.00" fill="#000000">int main()</text>
</g>
<!-- int main()&#45;&gt;void YetMoreMath() -->
<g id="edge13" class="edge">
<title>int main()&#45;&gt;void YetMoreMath()</title>
<path fill="none" stroke="#000000" d="M91.5654,-210.8398C139.2647,-214.8723 215.5288,-221.3197 275.4932,-226.3891"/>
<polygon fill="#000000" stroke="#000000" points="275.4686,-229.8994 285.7279,-227.2543 276.0584,-222.9243 275.4686,-229.8994"/>
</g>
<!-- int main()&#45;&gt;ShinyManager&amp; _ZTW14Shiny_instance() -->
<g id="edge16" class="edge">
<title>int main()&#45;&gt;ShinyManager&amp; _ZTW14Shiny_instance()</title>
<path fill="none" stroke="#000000" d="M51.6337,-224.9204C61.573,-253.832 85.5863,-309.8622 128.2918,-333 313.698,-433.4529 423.3728,-443.861 602.7497,-333 633.1835,-314.1909 609.9256,-282.1936 638.7497,-261 684.6785,-227.2297 743.8301,-211.3399 799.494,-204.613"/>
<polygon fill="#000000" stroke="#000000" points="799.9291,-208.0862 809.4791,-203.4985 799.1525,-201.1294 799.9291,-208.0862"/>
</g>
<!-- int main()&#45;&gt;void YetAnotherMath() -->
<g id="edge12" class="edge">
<title>int main()&#45;&gt;void YetAnotherMath()</title>
<path fill="none" stroke="#000000" d="M91.5654,-203.1602C137.4739,-199.2791 209.8428,-193.161 268.673,-188.1875"/>
<polygon fill="#000000" stroke="#000000" points="269.07,-191.6665 278.7396,-187.3365 268.4802,-184.6914 269.07,-191.6665"/>
</g>
<!-- void ExecuteCommand(const char*) -->
<g id="node12" class="node">
<title>void ExecuteCommand(const char*)</title>
<ellipse fill="none" stroke="#000000" cx="365.5208" cy="-72" rx="141.075" ry="18"/>
<text text-anchor="middle" x="365.5208" y="-68.3" font-family="Times,serif" font-size="14.00" fill="#000000">void ExecuteCommand(const char*)</text>
</g>
<!-- int main()&#45;&gt;void ExecuteCommand(const char*) -->
<g id="edge11" class="edge">
<title>int main()&#45;&gt;void ExecuteCommand(const char*)</title>
<path fill="none" stroke="#000000" d="M54.021,-189.2217C66.078,-164.3385 91.6337,-119.84 128.2918,-99 154.6779,-83.9996 185.3777,-75.3713 215.7648,-70.6972"/>
<polygon fill="#000000" stroke="#000000" points="216.6318,-74.1101 226.0513,-69.2601 215.6632,-67.1775 216.6318,-74.1101"/>
</g>
<!-- void DoSomeMath() -->
<g id="node13" class="node">
<title>void DoSomeMath()</title>
<ellipse fill="none" stroke="#000000" cx="365.5208" cy="-126" rx="85.2851" ry="18"/>
<text text-anchor="middle" x="365.5208" y="-122.3" font-family="Times,serif" font-size="14.00" fill="#000000">void DoSomeMath()</text>
</g>
<!-- int main()&#45;&gt;void DoSomeMath() -->
<g id="edge14" class="edge">
<title>int main()&#45;&gt;void DoSomeMath()</title>
<path fill="none" stroke="#000000" d="M65.3114,-190.6134C81.1183,-178.0795 104.7025,-161.5422 128.2918,-153 173.2184,-136.7312 225.7842,-129.6391 270.0009,-126.758"/>
<polygon fill="#000000" stroke="#000000" points="270.3971,-130.2409 280.1741,-126.1591 269.9857,-123.253 270.3971,-130.2409"/>
</g>
<!-- void Recursion(int) -->
<g id="node14" class="node">
<title>void Recursion(int)</title>
<ellipse fill="none" stroke="#000000" cx="365.5208" cy="-288" rx="79.0865" ry="18"/>
<text text-anchor="middle" x="365.5208" y="-284.3" font-family="Times,serif" font-size="14.00" fill="#000000">void Recursion(int)</text>
</g>
<!-- int main()&#45;&gt;void Recursion(int) -->
<g id="edge15" class="edge">
<title>int main()&#45;&gt;void Recursion(int)</title>
<path fill="none" stroke="#000000" d="M65.3114,-223.3866C81.1183,-235.9205 104.7025,-252.4578 128.2918,-261 175.2153,-277.992 230.4722,-284.9733 275.846,-287.6016"/>
<polygon fill="#000000" stroke="#000000" points="275.7957,-291.1036 285.9634,-288.1257 276.1579,-284.113 275.7957,-291.1036"/>
</g>
<!-- void ExecuteCommand(const char*)&#45;&gt;void ShinyManager_lookupAndBeginNode(ShinyManager*, _ShinyNode**, ShinyZone*) -->
<g id="edge25" class="edge">
<title>void ExecuteCommand(const char*)&#45;&gt;void ShinyManager_lookupAndBeginNode(ShinyManager*, _ShinyNode**, ShinyZone*)</title>
<path fill="none" stroke="#000000" d="M475.4919,-83.3109C525.3172,-88.3213 584.9844,-94.1627 638.7497,-99 681.7296,-102.8669 727.8555,-106.7683 771.6623,-110.357"/>
<polygon fill="#000000" stroke="#000000" points="771.6026,-113.8637 781.8545,-111.1897 772.1728,-106.8869 771.6026,-113.8637"/>
</g>
<!-- void ExecuteCommand(const char*)&#45;&gt;void ShinyManager_endCurNode(ShinyManager*) -->
<g id="edge23" class="edge">
<title>void ExecuteCommand(const char*)&#45;&gt;void ShinyManager_endCurNode(ShinyManager*)</title>
<path fill="none" stroke="#000000" d="M506.8359,-72C584.8017,-72 682.9659,-72 768.9599,-72"/>
<polygon fill="#000000" stroke="#000000" points="769.1152,-75.5001 779.1151,-72 769.1151,-68.5001 769.1152,-75.5001"/>
</g>
<!-- void ExecuteCommand(const char*)&#45;&gt;ShinyManager&amp; _ZTW14Shiny_instance() -->
<g id="edge24" class="edge">
<title>void ExecuteCommand(const char*)&#45;&gt;ShinyManager&amp; _ZTW14Shiny_instance()</title>
<path fill="none" stroke="#000000" d="M502.3301,-67.5816C537.0597,-71.6604 572.9418,-80.8041 602.7497,-99 627.3695,-114.0289 614.4941,-137.3902 638.7497,-153 685.083,-182.8181 742.3401,-198.0083 796.2211,-205.2966"/>
<polygon fill="#000000" stroke="#000000" points="795.8782,-208.781 806.2392,-206.5672 796.7591,-201.8367 795.8782,-208.781"/>
</g>
<!-- void DoSomeMath()&#45;&gt;void ShinyManager_lookupAndBeginNode(ShinyManager*, _ShinyNode**, ShinyZone*) -->
<g id="edge18" class="edge">
<title>void DoSomeMath()&#45;&gt;void ShinyManager_lookupAndBeginNode(ShinyManager*, _ShinyNode**, ShinyZone*)</title>
<path fill="none" stroke="#000000" d="M450.7402,-126C498.803,-126 562.3675,-126 628.521,-126"/>
<polygon fill="#000000" stroke="#000000" points="628.7276,-129.5001 638.7276,-126 628.7276,-122.5001 628.7276,-129.5001"/>
</g>
<!-- void DoSomeMath()&#45;&gt;ShinyManager&amp; _ZTW14Shiny_instance() -->
<g id="edge17" class="edge">
<title>void DoSomeMath()&#45;&gt;ShinyManager&amp; _ZTW14Shiny_instance()</title>
<path fill="none" stroke="#000000" d="M441.718,-134.0442C488.2765,-139.1154 549.0048,-146.0084 602.7497,-153 691.7623,-164.5796 792.5935,-179.4664 866.2958,-190.6758"/>
<polygon fill="#000000" stroke="#000000" points="866.0982,-194.1861 876.5114,-192.2324 867.1527,-187.2659 866.0982,-194.1861"/>
</g>
<!-- void Recursion(int)&#45;&gt;void ShinyManager_lookupAndBeginNode(ShinyManager*, _ShinyNode**, ShinyZone*) -->
<g id="edge22" class="edge">
<title>void Recursion(int)&#45;&gt;void ShinyManager_lookupAndBeginNode(ShinyManager*, _ShinyNode**, ShinyZone*)</title>
<path fill="none" stroke="#000000" d="M433.5767,-297.243C484.8578,-300.4798 554.3717,-296.4921 602.7497,-261 634.5137,-237.6966 607.5486,-204.0519 638.7497,-180 660.9337,-162.8991 686.453,-150.3049 713.2852,-141.1299"/>
<polygon fill="#000000" stroke="#000000" points="714.401,-144.4475 722.8276,-138.0254 712.2353,-137.7909 714.401,-144.4475"/>
</g>
<!-- void Recursion(int)&#45;&gt;ShinyManager&amp; _ZTW14Shiny_instance() -->
<g id="edge21" class="edge">
<title>void Recursion(int)&#45;&gt;ShinyManager&amp; _ZTW14Shiny_instance()</title>
<path fill="none" stroke="#000000" d="M437.4853,-280.4161C484.5543,-275.3062 547.3606,-268.2055 602.7497,-261 691.7623,-249.4204 792.5935,-234.5336 866.2958,-223.3242"/>
<polygon fill="#000000" stroke="#000000" points="867.1527,-226.7341 876.5114,-221.7676 866.0982,-219.8139 867.1527,-226.7341"/>
</g>
<!-- void Recursion(int)&#45;&gt;void Recursion(int) -->
<g id="edge19" class="edge">
<title>void Recursion(int)&#45;&gt;void Recursion(int)</title>
<path fill="none" stroke="#000000" d="M313.9348,-301.8543C293.9797,-312.7848 311.1751,-324 365.5208,-324 408.8275,-324 428.5434,-316.8782 424.6684,-308.454"/>
<polygon fill="#000000" stroke="#000000" points="426.9423,-305.793 417.1067,-301.8543 422.3394,-311.0668 426.9423,-305.793"/>
</g>
<!-- void millisleep(unsigned int) -->
<g id="node15" class="node">
<title>void millisleep(unsigned int)</title>
<ellipse fill="none" stroke="#000000" cx="971.5202" cy="-288" rx="113.18" ry="18"/>
<text text-anchor="middle" x="971.5202" y="-284.3" font-family="Times,serif" font-size="14.00" fill="#000000">void millisleep(unsigned int)</text>
</g>
<!-- void Recursion(int)&#45;&gt;void millisleep(unsigned int) -->
<g id="edge20" class="edge">
<title>void Recursion(int)&#45;&gt;void millisleep(unsigned int)</title>
<path fill="none" stroke="#000000" d="M445.0559,-288C547.8132,-288 727.7774,-288 848.2982,-288"/>
<polygon fill="#000000" stroke="#000000" points="848.3187,-291.5001 858.3186,-288 848.3186,-284.5001 848.3187,-291.5001"/>
</g>
</g>
</svg>
