<?xml version="1.0" encoding="UTF-8" standalone="no"?>
<!DOCTYPE svg PUBLIC "-//W3C//DTD SVG 1.1//EN"
 "http://www.w3.org/Graphics/SVG/1.1/DTD/svg11.dtd">
<!-- Generated by graphviz version 2.40.1 (20161225.0304)
 -->
<!-- Title: callgraph Pages: 1 -->
<svg width="2507pt" height="152pt"
 viewBox="0.00 0.00 2506.99 152.00" xmlns="http://www.w3.org/2000/svg" xmlns:xlink="http://www.w3.org/1999/xlink">
<g id="graph0" class="graph" transform="scale(1 1) rotate(0) translate(4 148)">
<title>callgraph</title>
<polygon fill="#ffffff" stroke="transparent" points="-4,4 -4,-148 2502.9942,-148 2502.9942,4 -4,4"/>
<!-- void _ShinyManager_appendTicksToCurNode(ShinyManager*) -->
<g id="node1" class="node">
<title>void _ShinyManager_appendTicksToCurNode(ShinyManager*)</title>
<ellipse fill="none" stroke="#000000" cx="1801.3529" cy="-72" rx="239.3577" ry="18"/>
<text text-anchor="middle" x="1801.3529" y="-68.3" font-family="Times,serif" font-size="14.00" fill="#000000">void _ShinyManager_appendTicksToCurNode(ShinyManager*)</text>
</g>
<!-- void ShinyNode_appendTicks(ShinyNode*, shinytick_t) -->
<g id="node2" class="node">
<title>void ShinyNode_appendTicks(ShinyNode*, shinytick_t)</title>
<ellipse fill="none" stroke="#000000" cx="2287.763" cy="-72" rx="211.4628" ry="18"/>
<text text-anchor="middle" x="2287.763" y="-68.3" font-family="Times,serif" font-size="14.00" fill="#000000">void ShinyNode_appendTicks(ShinyNode*, shinytick_t)</text>
</g>
<!-- void _ShinyManager_appendTicksToCurNode(ShinyManager*)&#45;&gt;void ShinyNode_appendTicks(ShinyNode*, shinytick_t) -->
<g id="edge1" class="edge">
<title>void _ShinyManager_appendTicksToCurNode(ShinyManager*)&#45;&gt;void ShinyNode_appendTicks(ShinyNode*, shinytick_t)</title>
<path fill="none" stroke="#000000" d="M2040.6393,-72C2049.0862,-72 2057.5395,-72 2065.9582,-72"/>
<polygon fill="#000000" stroke="#000000" points="2066.2075,-75.5001 2076.2075,-72 2066.2074,-68.5001 2066.2075,-75.5001"/>
</g>
<!-- void ShinyManager_beginNode(ShinyManager*, ShinyNode*) -->
<g id="node3" class="node">
<title>void ShinyManager_beginNode(ShinyManager*, ShinyNode*)</title>
<ellipse fill="none" stroke="#000000" cx="1290.895" cy="-126" rx="235.0585" ry="18"/>
<text text-anchor="middle" x="1290.895" y="-122.3" font-family="Times,serif" font-size="14.00" fill="#000000">void ShinyManager_beginNode(ShinyManager*, ShinyNode*)</text>
</g>
<!-- void ShinyManager_beginNode(ShinyManager*, ShinyNode*)&#45;&gt;void _ShinyManager_appendTicksToCurNode(ShinyManager*) -->
<g id="edge3" class="edge">
<title>void ShinyManager_beginNode(ShinyManager*, ShinyNode*)&#45;&gt;void _ShinyManager_appendTicksToCurNode(ShinyManager*)</title>
<path fill="none" stroke="#000000" d="M1429.0323,-111.3868C1498.1214,-104.0781 1581.825,-95.2233 1652.3549,-87.7621"/>
<polygon fill="#000000" stroke="#000000" points="1653.0858,-91.2044 1662.6621,-86.6717 1652.3493,-84.2433 1653.0858,-91.2044"/>
</g>
<!-- void ShinyNode_beginEntry(ShinyNode*) -->
<g id="node4" class="node">
<title>void ShinyNode_beginEntry(ShinyNode*)</title>
<ellipse fill="none" stroke="#000000" cx="1801.3529" cy="-126" rx="161.3716" ry="18"/>
<text text-anchor="middle" x="1801.3529" y="-122.3" font-family="Times,serif" font-size="14.00" fill="#000000">void ShinyNode_beginEntry(ShinyNode*)</text>
</g>
<!-- void ShinyManager_beginNode(ShinyManager*, ShinyNode*)&#45;&gt;void ShinyNode_beginEntry(ShinyNode*) -->
<g id="edge2" class="edge">
<title>void ShinyManager_beginNode(ShinyManager*, ShinyNode*)&#45;&gt;void ShinyNode_beginEntry(ShinyNode*)</title>
<path fill="none" stroke="#000000" d="M1526.3265,-126C1561.156,-126 1596.48,-126 1629.6834,-126"/>
<polygon fill="#000000" stroke="#000000" points="1629.9169,-129.5001 1639.9169,-126 1629.9168,-122.5001 1629.9169,-129.5001"/>
</g>
<!-- void ShinyManager_lookupAndBeginNode(ShinyManager*, _ShinyNode**, ShinyZone*) -->
<g id="node5" class="node">
<title>void ShinyManager_lookupAndBeginNode(ShinyManager*, _ShinyNode**, ShinyZone*)</title>
<ellipse fill="none" stroke="#000000" cx="686.8454" cy="-126" rx="332.5411" ry="18"/>
<text text-anchor="middle" x="686.8454" y="-122.3" font-family="Times,serif" font-size="14.00" fill="#000000">void ShinyManager_lookupAndBeginNode(ShinyManager*, _ShinyNode**, ShinyZone*)</text>
</g>
<!-- void ShinyManager_lookupAndBeginNode(ShinyManager*, _ShinyNode**, ShinyZone*)&#45;&gt;void ShinyManager_beginNode(ShinyManager*, ShinyNode*) -->
<g id="edge4" class="edge">
<title>void ShinyManager_lookupAndBeginNode(ShinyManager*, _ShinyNode**, ShinyZone*)&#45;&gt;void ShinyManager_beginNode(ShinyManager*, ShinyNode*)</title>
<path fill="none" stroke="#000000" d="M1019.7913,-126C1028.2495,-126 1036.675,-126 1045.0409,-126"/>
<polygon fill="#000000" stroke="#000000" points="1045.2142,-129.5001 1055.2141,-126 1045.2141,-122.5001 1045.2142,-129.5001"/>
</g>
<!-- void ShinyManager_endCurNode(ShinyManager*) -->
<g id="node6" class="node">
<title>void ShinyManager_endCurNode(ShinyManager*)</title>
<ellipse fill="none" stroke="#000000" cx="1290.895" cy="-72" rx="192.2659" ry="18"/>
<text text-anchor="middle" x="1290.895" y="-68.3" font-family="Times,serif" font-size="14.00" fill="#000000">void ShinyManager_endCurNode(ShinyManager*)</text>
</g>
<!-- void ShinyManager_endCurNode(ShinyManager*)&#45;&gt;void _ShinyManager_appendTicksToCurNode(ShinyManager*) -->
<g id="edge5" class="edge">
<title>void ShinyManager_endCurNode(ShinyManager*)&#45;&gt;void _ShinyManager_appendTicksToCurNode(ShinyManager*)</title>
<path fill="none" stroke="#000000" d="M1483.5135,-72C1505.782,-72 1528.7282,-72 1551.6155,-72"/>
<polygon fill="#000000" stroke="#000000" points="1551.77,-75.5001 1561.77,-72 1551.77,-68.5001 1551.77,-75.5001"/>
</g>
<!-- ShinyEndNodeOnDestruction::~ShinyEndNodeOnDestruction() -->
<g id="node7" class="node">
<title>ShinyEndNodeOnDestruction::~ShinyEndNodeOnDestruction()</title>
<ellipse fill="#ff0000" stroke="#ff0000" cx="686.8454" cy="-72" rx="237.4581" ry="18"/>
<text text-anchor="middle" x="686.8454" y="-68.3" font-family="Times,serif" font-size="14.00" fill="#000000">ShinyEndNodeOnDestruction::~ShinyEndNodeOnDestruction()</text>
</g>
<!-- ShinyEndNodeOnDestruction::~ShinyEndNodeOnDestruction()&#45;&gt;void ShinyManager_endCurNode(ShinyManager*) -->
<g id="edge6" class="edge">
<title>ShinyEndNodeOnDestruction::~ShinyEndNodeOnDestruction()&#45;&gt;void ShinyManager_endCurNode(ShinyManager*)</title>
<path fill="none" stroke="#000000" d="M924.2814,-72C978.4349,-72 1035.4948,-72 1088.0481,-72"/>
<polygon fill="#000000" stroke="#000000" points="1088.151,-75.5001 1098.151,-72 1088.151,-68.5001 1088.151,-75.5001"/>
</g>
<!-- void YetMoreMath() -->
<g id="node8" class="node">
<title>void YetMoreMath()</title>
<ellipse fill="none" stroke="#000000" cx="223.1834" cy="-64" rx="85.5853" ry="18"/>
<text text-anchor="middle" x="223.1834" y="-60.3" font-family="Times,serif" font-size="14.00" fill="#000000">void YetMoreMath()</text>
</g>
<!-- void YetMoreMath()&#45;&gt;void ShinyManager_lookupAndBeginNode(ShinyManager*, _ShinyNode**, ShinyZone*) -->
<g id="edge8" class="edge">
<title>void YetMoreMath()&#45;&gt;void ShinyManager_lookupAndBeginNode(ShinyManager*, _ShinyNode**, ShinyZone*)</title>
<path fill="none" stroke="#000000" d="M273.7854,-78.5361C303.6723,-86.923 338.603,-96.3263 354.075,-99 384.2248,-104.2103 416.0897,-108.4198 447.6805,-111.8198"/>
<polygon fill="#000000" stroke="#000000" points="447.6142,-115.332 457.9251,-112.8955 448.3453,-108.3703 447.6142,-115.332"/>
</g>
<!-- ShinyManager&amp; _ZTW14Shiny_instance() -->
<g id="node9" class="node">
<title>ShinyManager&amp; _ZTW14Shiny_instance()</title>
<ellipse fill="none" stroke="#000000" cx="686.8454" cy="-18" rx="165.1707" ry="18"/>
<text text-anchor="middle" x="686.8454" y="-14.3" font-family="Times,serif" font-size="14.00" fill="#000000">ShinyManager&amp; _ZTW14Shiny_instance()</text>
</g>
<!-- void YetMoreMath()&#45;&gt;ShinyManager&amp; _ZTW14Shiny_instance() -->
<g id="edge7" class="edge">
<title>void YetMoreMath()&#45;&gt;ShinyManager&amp; _ZTW14Shiny_instance()</title>
<path fill="none" stroke="#000000" d="M292.0275,-53.1736C312.0074,-50.2576 333.8818,-47.2825 354.075,-45 413.4343,-38.2904 478.9331,-32.6072 536.0073,-28.2113"/>
<polygon fill="#000000" stroke="#000000" points="536.4891,-31.6848 546.1935,-27.4335 535.956,-24.7051 536.4891,-31.6848"/>
</g>
<!-- void YetAnotherMath() -->
<g id="node10" class="node">
<title>void YetAnotherMath()</title>
<ellipse fill="none" stroke="#000000" cx="223.1834" cy="-118" rx="94.7833" ry="18"/>
<text text-anchor="middle" x="223.1834" y="-114.3" font-family="Times,serif" font-size="14.00" fill="#000000">void YetAnotherMath()</text>
</g>
<!-- void YetAnotherMath()&#45;&gt;void ShinyManager_lookupAndBeginNode(ShinyManager*, _ShinyNode**, ShinyZone*) -->
<g id="edge10" class="edge">
<title>void YetAnotherMath()&#45;&gt;void ShinyManager_lookupAndBeginNode(ShinyManager*, _ShinyNode**, ShinyZone*)</title>
<path fill="none" stroke="#000000" d="M317.851,-119.6334C330.8707,-119.858 344.7916,-120.0982 359.3206,-120.3489"/>
<polygon fill="#000000" stroke="#000000" points="359.4139,-123.8509 369.4728,-120.5241 359.5347,-116.852 359.4139,-123.8509"/>
</g>
<!-- void YetAnotherMath()&#45;&gt;ShinyManager&amp; _ZTW14Shiny_instance() -->
<g id="edge9" class="edge">
<title>void YetAnotherMath()&#45;&gt;ShinyManager&amp; _ZTW14Shiny_instance()</title>
<path fill="none" stroke="#000000" d="M289.3874,-105.0166C299.4786,-101.4148 309.4047,-96.8301 318.075,-91 339.6184,-76.5136 331.216,-57.3061 354.075,-45 416.569,-11.3563 495.4128,-3.7201 560.6677,-4.9089"/>
<polygon fill="#000000" stroke="#000000" points="560.9335,-8.4168 571.0195,-5.1729 561.112,-1.419 560.9335,-8.4168"/>
</g>
<!-- int main() -->
<g id="node11" class="node">
<title>int main()</title>
<ellipse fill="#ff0000" stroke="#ff0000" cx="46.1459" cy="-64" rx="46.2923" ry="18"/>
<text text-anchor="middle" x="46.1459" y="-60.3" font-family="Times,serif" font-size="14.00" fill="#000000">int main()</text>
</g>
<!-- int main()&#45;&gt;void YetMoreMath() -->
<g id="edge12" class="edge">
<title>int main()&#45;&gt;void YetMoreMath()</title>
<path fill="none" stroke="#000000" d="M92.6604,-64C103.3854,-64 115.1813,-64 127.1619,-64"/>
<polygon fill="#000000" stroke="#000000" points="127.2496,-67.5001 137.2495,-64 127.2495,-60.5001 127.2496,-67.5001"/>
</g>
<!-- int main()&#45;&gt;ShinyManager&amp; _ZTW14Shiny_instance() -->
<g id="edge13" class="edge">
<title>int main()&#45;&gt;ShinyManager&amp; _ZTW14Shiny_instance()</title>
<path fill="none" stroke="#000000" d="M78.3774,-51.0565C93.309,-45.6743 111.4418,-39.9928 128.2918,-37 259.3934,-13.7144 410.4469,-9.9341 522.3868,-11.4383"/>
<polygon fill="#000000" stroke="#000000" points="522.3623,-14.9383 532.4137,-11.5886 522.4672,-7.9391 522.3623,-14.9383"/>
</g>
<!-- int main()&#45;&gt;void YetAnotherMath() -->
<g id="edge11" class="edge">
<title>int main()&#45;&gt;void YetAnotherMath()</title>
<path fill="none" stroke="#000000" d="M81.224,-75.8748C95.7482,-80.7015 112.7905,-86.2493 128.2918,-91 138.3441,-94.0807 149.0313,-97.2364 159.4711,-100.2539"/>
<polygon fill="#000000" stroke="#000000" points="158.7982,-103.7021 169.3758,-103.0978 160.73,-96.9739 158.7982,-103.7021"/>
</g>
</g>
</svg>
