<?xml version="1.0" encoding="UTF-8" standalone="no"?>
<!DOCTYPE svg PUBLIC "-//W3C//DTD SVG 1.1//EN"
 "http://www.w3.org/Graphics/SVG/1.1/DTD/svg11.dtd">
<!-- Generated by graphviz version 2.40.1 (20161225.0304)
 -->
<!-- Title: callgraph Pages: 1 -->
<svg width="3045pt" height="362pt"
 viewBox="0.00 0.00 3044.75 362.18" xmlns="http://www.w3.org/2000/svg" xmlns:xlink="http://www.w3.org/1999/xlink">
<g id="graph0" class="graph" transform="scale(1 1) rotate(0) translate(4 358.1811)">
<title>callgraph</title>
<polygon fill="#ffffff" stroke="transparent" points="-4,4 -4,-358.1811 3040.7497,-358.1811 3040.7497,4 -4,4"/>
<!-- void _ShinyManager_appendTicksToCurNode(ShinyManager*) -->
<g id="node1" class="node">
<title>void _ShinyManager_appendTicksToCurNode(ShinyManager*)</title>
<ellipse fill="none" stroke="#000000" cx="2339.1084" cy="-249.2402" rx="239.3577" ry="18"/>
<text text-anchor="middle" x="2339.1084" y="-245.5402" font-family="Times,serif" font-size="14.00" fill="#000000">void _ShinyManager_appendTicksToCurNode(ShinyManager*)</text>
</g>
<!-- void ShinyNode_appendTicks(ShinyNode*, shinytick_t) -->
<g id="node2" class="node">
<title>void ShinyNode_appendTicks(ShinyNode*, shinytick_t)</title>
<ellipse fill="none" stroke="#000000" cx="2825.5185" cy="-249.2402" rx="211.4628" ry="18"/>
<text text-anchor="middle" x="2825.5185" y="-245.5402" font-family="Times,serif" font-size="14.00" fill="#000000">void ShinyNode_appendTicks(ShinyNode*, shinytick_t)</text>
</g>
<!-- void _ShinyManager_appendTicksToCurNode(ShinyManager*)&#45;&gt;void ShinyNode_appendTicks(ShinyNode*, shinytick_t) -->
<g id="edge1" class="edge">
<title>void _ShinyManager_appendTicksToCurNode(ShinyManager*)&#45;&gt;void ShinyNode_appendTicks(ShinyNode*, shinytick_t)</title>
<path fill="none" stroke="#000000" d="M2578.3948,-249.2402C2586.8417,-249.2402 2595.2949,-249.2402 2603.7137,-249.2402"/>
<polygon fill="#000000" stroke="#000000" points="2603.963,-252.7403 2613.9629,-249.2402 2603.9629,-245.7403 2603.963,-252.7403"/>
</g>
<!-- void ShinyManager_beginNode(ShinyManager*, ShinyNode*) -->
<g id="node3" class="node">
<title>void ShinyManager_beginNode(ShinyManager*, ShinyNode*)</title>
<ellipse fill="none" stroke="#000000" cx="1828.6505" cy="-190.2402" rx="235.0585" ry="18"/>
<text text-anchor="middle" x="1828.6505" y="-186.5402" font-family="Times,serif" font-size="14.00" fill="#000000">void ShinyManager_beginNode(ShinyManager*, ShinyNode*)</text>
</g>
<!-- void ShinyManager_beginNode(ShinyManager*, ShinyNode*)&#45;&gt;void _ShinyManager_appendTicksToCurNode(ShinyManager*) -->
<g id="edge3" class="edge">
<title>void ShinyManager_beginNode(ShinyManager*, ShinyNode*)&#45;&gt;void _ShinyManager_appendTicksToCurNode(ShinyManager*)</title>
<path fill="none" stroke="#000000" d="M1958.7814,-205.2811C2031.9982,-213.7437 2123.4624,-224.3153 2198.3457,-232.9705"/>
<polygon fill="#000000" stroke="#000000" points="2197.9929,-236.453 2208.3286,-234.1244 2198.7967,-229.4993 2197.9929,-236.453"/>
</g>
<!-- void ShinyNode_beginEntry(ShinyNode*) -->
<g id="node4" class="node">
<title>void ShinyNode_beginEntry(ShinyNode*)</title>
<ellipse fill="none" stroke="#000000" cx="2339.1084" cy="-190.2402" rx="161.3716" ry="18"/>
<text text-anchor="middle" x="2339.1084" y="-186.5402" font-family="Times,serif" font-size="14.00" fill="#000000">void ShinyNode_beginEntry(ShinyNode*)</text>
</g>
<!-- void ShinyManager_beginNode(ShinyManager*, ShinyNode*)&#45;&gt;void ShinyNode_beginEntry(ShinyNode*) -->
<g id="edge2" class="edge">
<title>void ShinyManager_beginNode(ShinyManager*, ShinyNode*)&#45;&gt;void ShinyNode_beginEntry(ShinyNode*)</title>
<path fill="none" stroke="#000000" d="M2064.082,-190.2402C2098.9114,-190.2402 2134.2355,-190.2402 2167.4388,-190.2402"/>
<polygon fill="#000000" stroke="#000000" points="2167.6724,-193.7403 2177.6723,-190.2402 2167.6723,-186.7403 2167.6724,-193.7403"/>
</g>
<!-- void ShinyManager_lookupAndBeginNode(ShinyManager*, _ShinyNode**, ShinyZone*) -->
<g id="node5" class="node">
<title>void ShinyManager_lookupAndBeginNode(ShinyManager*, _ShinyNode**, ShinyZone*)</title>
<ellipse fill="none" stroke="#000000" cx="1224.6009" cy="-188.2402" rx="332.5411" ry="18"/>
<text text-anchor="middle" x="1224.6009" y="-184.5402" font-family="Times,serif" font-size="14.00" fill="#000000">void ShinyManager_lookupAndBeginNode(ShinyManager*, _ShinyNode**, ShinyZone*)</text>
</g>
<!-- void ShinyManager_lookupAndBeginNode(ShinyManager*, _ShinyNode**, ShinyZone*)&#45;&gt;void ShinyManager_beginNode(ShinyManager*, ShinyNode*) -->
<g id="edge4" class="edge">
<title>void ShinyManager_lookupAndBeginNode(ShinyManager*, _ShinyNode**, ShinyZone*)&#45;&gt;void ShinyManager_beginNode(ShinyManager*, ShinyNode*)</title>
<path fill="none" stroke="#000000" d="M1557.1064,-189.3412C1565.8645,-189.3702 1574.588,-189.399 1583.2471,-189.4277"/>
<polygon fill="#000000" stroke="#000000" points="1583.3692,-192.928 1593.3808,-189.4613 1583.3925,-185.9281 1583.3692,-192.928"/>
</g>
<!-- void ShinyManager_endCurNode(ShinyManager*) -->
<g id="node6" class="node">
<title>void ShinyManager_endCurNode(ShinyManager*)</title>
<ellipse fill="none" stroke="#000000" cx="1224.6009" cy="-261.2402" rx="192.2659" ry="18"/>
<text text-anchor="middle" x="1224.6009" y="-257.5402" font-family="Times,serif" font-size="14.00" fill="#000000">void ShinyManager_endCurNode(ShinyManager*)</text>
</g>
<!-- void ShinyManager_endCurNode(ShinyManager*)&#45;&gt;void _ShinyManager_appendTicksToCurNode(ShinyManager*) -->
<g id="edge5" class="edge">
<title>void ShinyManager_endCurNode(ShinyManager*)&#45;&gt;void _ShinyManager_appendTicksToCurNode(ShinyManager*)</title>
<path fill="none" stroke="#000000" d="M1415.8747,-259.1808C1602.7269,-257.1689 1888.0015,-254.0974 2091.961,-251.9013"/>
<polygon fill="#000000" stroke="#000000" points="2092.2586,-255.3984 2102.2203,-251.7908 2092.1831,-248.3988 2092.2586,-255.3984"/>
</g>
<!-- ShinyEndNodeOnDestruction::~ShinyEndNodeOnDestruction() -->
<g id="node7" class="node">
<title>ShinyEndNodeOnDestruction::~ShinyEndNodeOnDestruction()</title>
<ellipse fill="#ff0000" stroke="#ff0000" cx="618.6015" cy="-280.2402" rx="237.4581" ry="18"/>
<text text-anchor="middle" x="618.6015" y="-276.5402" font-family="Times,serif" font-size="14.00" fill="#000000">ShinyEndNodeOnDestruction::~ShinyEndNodeOnDestruction()</text>
</g>
<!-- ShinyEndNodeOnDestruction::~ShinyEndNodeOnDestruction()&#45;&gt;void ShinyManager_endCurNode(ShinyManager*) -->
<g id="edge6" class="edge">
<title>ShinyEndNodeOnDestruction::~ShinyEndNodeOnDestruction()&#45;&gt;void ShinyManager_endCurNode(ShinyManager*)</title>
<path fill="none" stroke="#000000" d="M838.238,-273.3539C901.6082,-271.3671 970.2535,-269.2148 1031.858,-267.2833"/>
<polygon fill="#000000" stroke="#000000" points="1032.1936,-270.7746 1042.079,-266.9629 1031.9742,-263.7781 1032.1936,-270.7746"/>
</g>
<!-- void DoPhysicsSimulation() -->
<g id="node8" class="node">
<title>void DoPhysicsSimulation()</title>
<ellipse fill="none" stroke="#000000" cx="618.6015" cy="-96.2402" rx="111.2805" ry="18"/>
<text text-anchor="middle" x="618.6015" y="-92.5402" font-family="Times,serif" font-size="14.00" fill="#000000">void DoPhysicsSimulation()</text>
</g>
<!-- void DoPhysicsSimulation()&#45;&gt;void ShinyManager_lookupAndBeginNode(ShinyManager*, _ShinyNode**, ShinyZone*) -->
<g id="edge8" class="edge">
<title>void DoPhysicsSimulation()&#45;&gt;void ShinyManager_lookupAndBeginNode(ShinyManager*, _ShinyNode**, ShinyZone*)</title>
<path fill="none" stroke="#000000" d="M699.7005,-108.5523C803.1428,-124.2564 982.9661,-151.5564 1102.8827,-169.7615"/>
<polygon fill="#000000" stroke="#000000" points="1102.439,-173.2342 1112.851,-171.2749 1103.4897,-166.3135 1102.439,-173.2342"/>
</g>
<!-- ShinyManager&amp; _ZTW14Shiny_instance() -->
<g id="node9" class="node">
<title>ShinyManager&amp; _ZTW14Shiny_instance()</title>
<ellipse fill="none" stroke="#000000" cx="1224.6009" cy="-96.2402" rx="165.1707" ry="18"/>
<text text-anchor="middle" x="1224.6009" y="-92.5402" font-family="Times,serif" font-size="14.00" fill="#000000">ShinyManager&amp; _ZTW14Shiny_instance()</text>
</g>
<!-- void DoPhysicsSimulation()&#45;&gt;ShinyManager&amp; _ZTW14Shiny_instance() -->
<g id="edge7" class="edge">
<title>void DoPhysicsSimulation()&#45;&gt;ShinyManager&amp; _ZTW14Shiny_instance()</title>
<path fill="none" stroke="#000000" d="M729.7511,-96.2402C819.0352,-96.2402 946.0739,-96.2402 1049.0766,-96.2402"/>
<polygon fill="#000000" stroke="#000000" points="1049.2842,-99.7403 1059.2842,-96.2402 1049.2842,-92.7403 1049.2842,-99.7403"/>
</g>
<!-- void CheckPhysicsRaycast() -->
<g id="node10" class="node">
<title>void CheckPhysicsRaycast()</title>
<ellipse fill="none" stroke="#000000" cx="618.6015" cy="-188.2402" rx="111.5806" ry="18"/>
<text text-anchor="middle" x="618.6015" y="-184.5402" font-family="Times,serif" font-size="14.00" fill="#000000">void CheckPhysicsRaycast()</text>
</g>
<!-- void CheckPhysicsRaycast()&#45;&gt;void ShinyManager_lookupAndBeginNode(ShinyManager*, _ShinyNode**, ShinyZone*) -->
<g id="edge11" class="edge">
<title>void CheckPhysicsRaycast()&#45;&gt;void ShinyManager_lookupAndBeginNode(ShinyManager*, _ShinyNode**, ShinyZone*)</title>
<path fill="none" stroke="#000000" d="M730.4573,-188.2402C774.2431,-188.2402 827.0296,-188.2402 881.5776,-188.2402"/>
<polygon fill="#000000" stroke="#000000" points="881.7816,-191.7403 891.7816,-188.2402 881.7816,-184.7403 881.7816,-191.7403"/>
</g>
<!-- void CheckPhysicsRaycast()&#45;&gt;void ShinyManager_endCurNode(ShinyManager*) -->
<g id="edge9" class="edge">
<title>void CheckPhysicsRaycast()&#45;&gt;void ShinyManager_endCurNode(ShinyManager*)</title>
<path fill="none" stroke="#000000" d="M708.3449,-199.0509C811.0311,-211.4207 979.9979,-231.7748 1096.5024,-245.8092"/>
<polygon fill="#000000" stroke="#000000" points="1096.2058,-249.2987 1106.5526,-247.0199 1097.043,-242.3489 1096.2058,-249.2987"/>
</g>
<!-- void CheckPhysicsRaycast()&#45;&gt;ShinyManager&amp; _ZTW14Shiny_instance() -->
<g id="edge10" class="edge">
<title>void CheckPhysicsRaycast()&#45;&gt;ShinyManager&amp; _ZTW14Shiny_instance()</title>
<path fill="none" stroke="#000000" d="M706.2776,-176.9922C751.0645,-171.0997 806.4003,-163.5939 855.8305,-156.2402 947.2853,-142.6346 1051.2287,-125.5779 1125.3977,-113.1318"/>
<polygon fill="#000000" stroke="#000000" points="1126.3795,-116.5159 1135.6612,-111.407 1125.2194,-109.6127 1126.3795,-116.5159"/>
</g>
<!-- void UpdateAllCharacters() -->
<g id="node11" class="node">
<title>void UpdateAllCharacters()</title>
<ellipse fill="none" stroke="#000000" cx="236.8322" cy="-188.2402" rx="108.5808" ry="18"/>
<text text-anchor="middle" x="236.8322" y="-184.5402" font-family="Times,serif" font-size="14.00" fill="#000000">void UpdateAllCharacters()</text>
</g>
<!-- void UpdateAllCharacters()&#45;&gt;void ShinyManager_lookupAndBeginNode(ShinyManager*, _ShinyNode**, ShinyZone*) -->
<g id="edge13" class="edge">
<title>void UpdateAllCharacters()&#45;&gt;void ShinyManager_lookupAndBeginNode(ShinyManager*, _ShinyNode**, ShinyZone*)</title>
<path fill="none" stroke="#000000" d="M300.8723,-202.8319C325.848,-207.83 354.8096,-212.7805 381.3725,-215.2402 618.2103,-237.1711 893.879,-220.4145 1063.8154,-205.2276"/>
<polygon fill="#000000" stroke="#000000" points="1064.1992,-208.7073 1073.8439,-204.3222 1063.5697,-201.7357 1064.1992,-208.7073"/>
</g>
<!-- void UpdateAllCharacters()&#45;&gt;void ShinyManager_endCurNode(ShinyManager*) -->
<g id="edge15" class="edge">
<title>void UpdateAllCharacters()&#45;&gt;void ShinyManager_endCurNode(ShinyManager*)</title>
<path fill="none" stroke="#000000" d="M251.3417,-206.3928C275.0364,-234.4063 325.0767,-287.0476 381.3725,-307.2402 656.9116,-406.0728 1015.5772,-322.7587 1160.095,-281.3026"/>
<polygon fill="#000000" stroke="#000000" points="1161.0841,-284.66 1169.714,-278.514 1159.1349,-277.9369 1161.0841,-284.66"/>
</g>
<!-- void UpdateAllCharacters()&#45;&gt;ShinyManager&amp; _ZTW14Shiny_instance() -->
<g id="edge14" class="edge">
<title>void UpdateAllCharacters()&#45;&gt;ShinyManager&amp; _ZTW14Shiny_instance()</title>
<path fill="none" stroke="#000000" d="M304.2423,-174.0904C328.4711,-169.418 356.0627,-164.5698 381.3725,-161.2402 415.2158,-156.7881 844.9476,-124.4974 1077.4758,-107.1677"/>
<polygon fill="#000000" stroke="#000000" points="1078.0012,-110.6383 1087.7135,-106.4049 1077.4811,-103.6577 1078.0012,-110.6383"/>
</g>
<!-- void UpdateAllCharacters()&#45;&gt;void CheckPhysicsRaycast() -->
<g id="edge12" class="edge">
<title>void UpdateAllCharacters()&#45;&gt;void CheckPhysicsRaycast()</title>
<path fill="none" stroke="#000000" d="M345.4658,-188.2402C392.5898,-188.2402 447.9831,-188.2402 496.5233,-188.2402"/>
<polygon fill="#000000" stroke="#000000" points="496.7718,-191.7403 506.7718,-188.2402 496.7717,-184.7403 496.7718,-191.7403"/>
</g>
<!-- void DrawWorldObjects() -->
<g id="node12" class="node">
<title>void DrawWorldObjects()</title>
<ellipse fill="none" stroke="#000000" cx="618.6015" cy="-42.2402" rx="103.9815" ry="18"/>
<text text-anchor="middle" x="618.6015" y="-38.5402" font-family="Times,serif" font-size="14.00" fill="#000000">void DrawWorldObjects()</text>
</g>
<!-- void DrawWorldObjects()&#45;&gt;void ShinyManager_lookupAndBeginNode(ShinyManager*, _ShinyNode**, ShinyZone*) -->
<g id="edge17" class="edge">
<title>void DrawWorldObjects()&#45;&gt;void ShinyManager_lookupAndBeginNode(ShinyManager*, _ShinyNode**, ShinyZone*)</title>
<path fill="none" stroke="#000000" d="M714.1118,-35.0906C759.9625,-35.9624 813.9047,-43.6471 855.8305,-69.2402 880.4502,-84.2691 867.828,-107.244 891.8305,-123.2402 926.5215,-146.3598 967.4866,-161.6621 1008.5992,-171.703"/>
<polygon fill="#000000" stroke="#000000" points="1007.9522,-175.1461 1018.4868,-174.0178 1009.5479,-168.3304 1007.9522,-175.1461"/>
</g>
<!-- void DrawWorldObjects()&#45;&gt;ShinyManager&amp; _ZTW14Shiny_instance() -->
<g id="edge16" class="edge">
<title>void DrawWorldObjects()&#45;&gt;ShinyManager&amp; _ZTW14Shiny_instance()</title>
<path fill="none" stroke="#000000" d="M711.2994,-50.5005C811.2326,-59.4054 971.3894,-73.6768 1086.2341,-83.9105"/>
<polygon fill="#000000" stroke="#000000" points="1086.2346,-87.4243 1096.5058,-84.8258 1086.8559,-80.452 1086.2346,-87.4243"/>
</g>
<!-- int main() -->
<g id="node13" class="node">
<title>int main()</title>
<ellipse fill="#ff0000" stroke="#ff0000" cx="46.1459" cy="-77.2402" rx="46.2923" ry="18"/>
<text text-anchor="middle" x="46.1459" y="-73.5402" font-family="Times,serif" font-size="14.00" fill="#000000">int main()</text>
</g>
<!-- int main()&#45;&gt;void DoPhysicsSimulation() -->
<g id="edge20" class="edge">
<title>int main()&#45;&gt;void DoPhysicsSimulation()</title>
<path fill="none" stroke="#000000" d="M92.5074,-78.779C180.297,-81.6928 373.2921,-88.0983 499.5216,-92.2879"/>
<polygon fill="#000000" stroke="#000000" points="499.516,-95.7896 509.6267,-92.6233 499.7483,-88.7934 499.516,-95.7896"/>
</g>
<!-- int main()&#45;&gt;ShinyManager&amp; _ZTW14Shiny_instance() -->
<g id="edge21" class="edge">
<title>int main()&#45;&gt;ShinyManager&amp; _ZTW14Shiny_instance()</title>
<path fill="none" stroke="#000000" d="M84.015,-66.8028C97.8807,-63.1817 113.7372,-59.2732 128.2918,-56.2402 239.8423,-32.9947 267.793,-24.3808 381.3725,-15.2402 591.5632,1.6753 646.1913,7.5121 855.8305,-15.2402 962.2588,-26.791 1082.9807,-56.5705 1156.4427,-76.6192"/>
<polygon fill="#000000" stroke="#000000" points="1155.9184,-80.1048 1166.4885,-79.3806 1157.7739,-73.3552 1155.9184,-80.1048"/>
</g>
<!-- int main()&#45;&gt;void UpdateAllCharacters() -->
<g id="edge18" class="edge">
<title>int main()&#45;&gt;void UpdateAllCharacters()</title>
<path fill="none" stroke="#000000" d="M71.8627,-92.2102C104.3319,-111.1108 160.489,-143.8003 198.1448,-165.72"/>
<polygon fill="#000000" stroke="#000000" points="196.4196,-168.7655 206.8228,-170.7715 199.9412,-162.7158 196.4196,-168.7655"/>
</g>
<!-- int main()&#45;&gt;void DrawWorldObjects() -->
<g id="edge19" class="edge">
<title>int main()&#45;&gt;void DrawWorldObjects()</title>
<path fill="none" stroke="#000000" d="M92.0247,-74.4352C182.1137,-68.9272 384.3112,-56.5648 510.2949,-48.8621"/>
<polygon fill="#000000" stroke="#000000" points="510.5911,-52.3506 520.3588,-48.2468 510.1638,-45.3637 510.5911,-52.3506"/>
</g>
</g>
</svg>
