<?xml version="1.0" encoding="UTF-8" standalone="no"?>
<!DOCTYPE svg PUBLIC "-//W3C//DTD SVG 1.1//EN"
 "http://www.w3.org/Graphics/SVG/1.1/DTD/svg11.dtd">
<!-- Generated by graphviz version 2.40.1 (20161225.0304)
 -->
<!-- Title: callgraph Pages: 1 -->
<svg width="2792pt" height="206pt"
 viewBox="0.00 0.00 2791.67 206.00" xmlns="http://www.w3.org/2000/svg" xmlns:xlink="http://www.w3.org/1999/xlink">
<g id="graph0" class="graph" transform="scale(1 1) rotate(0) translate(4 202)">
<title>callgraph</title>
<polygon fill="#ffffff" stroke="transparent" points="-4,4 -4,-202 2787.669,-202 2787.669,4 -4,4"/>
<!-- void _ShinyManager_appendTicksToCurNode(ShinyManager*) -->
<g id="node1" class="node">
<title>void _ShinyManager_appendTicksToCurNode(ShinyManager*)</title>
<ellipse fill="none" stroke="#000000" cx="2086.0277" cy="-180" rx="239.3577" ry="18"/>
<text text-anchor="middle" x="2086.0277" y="-176.3" font-family="Times,serif" font-size="14.00" fill="#000000">void _ShinyManager_appendTicksToCurNode(ShinyManager*)</text>
</g>
<!-- void ShinyNode_appendTicks(ShinyNode*, shinytick_t) -->
<g id="node2" class="node">
<title>void ShinyNode_appendTicks(ShinyNode*, shinytick_t)</title>
<ellipse fill="none" stroke="#000000" cx="2572.4377" cy="-180" rx="211.4628" ry="18"/>
<text text-anchor="middle" x="2572.4377" y="-176.3" font-family="Times,serif" font-size="14.00" fill="#000000">void ShinyNode_appendTicks(ShinyNode*, shinytick_t)</text>
</g>
<!-- void _ShinyManager_appendTicksToCurNode(ShinyManager*)&#45;&gt;void ShinyNode_appendTicks(ShinyNode*, shinytick_t) -->
<g id="edge1" class="edge">
<title>void _ShinyManager_appendTicksToCurNode(ShinyManager*)&#45;&gt;void ShinyNode_appendTicks(ShinyNode*, shinytick_t)</title>
<path fill="none" stroke="#000000" d="M2325.314,-180C2333.761,-180 2342.2142,-180 2350.633,-180"/>
<polygon fill="#000000" stroke="#000000" points="2350.8822,-183.5001 2360.8822,-180 2350.8822,-176.5001 2350.8822,-183.5001"/>
</g>
<!-- void ShinyManager_beginNode(ShinyManager*, ShinyNode*) -->
<g id="node3" class="node">
<title>void ShinyManager_beginNode(ShinyManager*, ShinyNode*)</title>
<ellipse fill="none" stroke="#000000" cx="1575.5698" cy="-126" rx="235.0585" ry="18"/>
<text text-anchor="middle" x="1575.5698" y="-122.3" font-family="Times,serif" font-size="14.00" fill="#000000">void ShinyManager_beginNode(ShinyManager*, ShinyNode*)</text>
</g>
<!-- void ShinyManager_beginNode(ShinyManager*, ShinyNode*)&#45;&gt;void _ShinyManager_appendTicksToCurNode(ShinyManager*) -->
<g id="edge3" class="edge">
<title>void ShinyManager_beginNode(ShinyManager*, ShinyNode*)&#45;&gt;void _ShinyManager_appendTicksToCurNode(ShinyManager*)</title>
<path fill="none" stroke="#000000" d="M1713.707,-140.6132C1782.7961,-147.9219 1866.4998,-156.7767 1937.0297,-164.2379"/>
<polygon fill="#000000" stroke="#000000" points="1937.0241,-167.7567 1947.3368,-165.3283 1937.7605,-160.7956 1937.0241,-167.7567"/>
</g>
<!-- void ShinyNode_beginEntry(ShinyNode*) -->
<g id="node4" class="node">
<title>void ShinyNode_beginEntry(ShinyNode*)</title>
<ellipse fill="none" stroke="#000000" cx="2086.0277" cy="-126" rx="161.3716" ry="18"/>
<text text-anchor="middle" x="2086.0277" y="-122.3" font-family="Times,serif" font-size="14.00" fill="#000000">void ShinyNode_beginEntry(ShinyNode*)</text>
</g>
<!-- void ShinyManager_beginNode(ShinyManager*, ShinyNode*)&#45;&gt;void ShinyNode_beginEntry(ShinyNode*) -->
<g id="edge2" class="edge">
<title>void ShinyManager_beginNode(ShinyManager*, ShinyNode*)&#45;&gt;void ShinyNode_beginEntry(ShinyNode*)</title>
<path fill="none" stroke="#000000" d="M1811.0013,-126C1845.8307,-126 1881.1548,-126 1914.3581,-126"/>
<polygon fill="#000000" stroke="#000000" points="1914.5916,-129.5001 1924.5916,-126 1914.5916,-122.5001 1914.5916,-129.5001"/>
</g>
<!-- void ShinyManager_lookupAndBeginNode(ShinyManager*, _ShinyNode**, ShinyZone*) -->
<g id="node5" class="node">
<title>void ShinyManager_lookupAndBeginNode(ShinyManager*, _ShinyNode**, ShinyZone*)</title>
<ellipse fill="none" stroke="#000000" cx="971.5202" cy="-126" rx="332.5411" ry="18"/>
<text text-anchor="middle" x="971.5202" y="-122.3" font-family="Times,serif" font-size="14.00" fill="#000000">void ShinyManager_lookupAndBeginNode(ShinyManager*, _ShinyNode**, ShinyZone*)</text>
</g>
<!-- void ShinyManager_lookupAndBeginNode(ShinyManager*, _ShinyNode**, ShinyZone*)&#45;&gt;void ShinyManager_beginNode(ShinyManager*, ShinyNode*) -->
<g id="edge4" class="edge">
<title>void ShinyManager_lookupAndBeginNode(ShinyManager*, _ShinyNode**, ShinyZone*)&#45;&gt;void ShinyManager_beginNode(ShinyManager*, ShinyNode*)</title>
<path fill="none" stroke="#000000" d="M1304.4661,-126C1312.9243,-126 1321.3498,-126 1329.7157,-126"/>
<polygon fill="#000000" stroke="#000000" points="1329.8889,-129.5001 1339.8889,-126 1329.8888,-122.5001 1329.8889,-129.5001"/>
</g>
<!-- void ShinyManager_endCurNode(ShinyManager*) -->
<g id="node6" class="node">
<title>void ShinyManager_endCurNode(ShinyManager*)</title>
<ellipse fill="none" stroke="#000000" cx="971.5202" cy="-180" rx="192.2659" ry="18"/>
<text text-anchor="middle" x="971.5202" y="-176.3" font-family="Times,serif" font-size="14.00" fill="#000000">void ShinyManager_endCurNode(ShinyManager*)</text>
</g>
<!-- void ShinyManager_endCurNode(ShinyManager*)&#45;&gt;void _ShinyManager_appendTicksToCurNode(ShinyManager*) -->
<g id="edge5" class="edge">
<title>void ShinyManager_endCurNode(ShinyManager*)&#45;&gt;void _ShinyManager_appendTicksToCurNode(ShinyManager*)</title>
<path fill="none" stroke="#000000" d="M1164.0626,-180C1350.1917,-180 1633.1192,-180 1836.4468,-180"/>
<polygon fill="#000000" stroke="#000000" points="1836.6755,-183.5001 1846.6755,-180 1836.6755,-176.5001 1836.6755,-183.5001"/>
</g>
<!-- ShinyEndNodeOnDestruction::~ShinyEndNodeOnDestruction() -->
<g id="node7" class="node">
<title>ShinyEndNodeOnDestruction::~ShinyEndNodeOnDestruction()</title>
<ellipse fill="#ff0000" stroke="#ff0000" cx="365.5208" cy="-180" rx="237.4581" ry="18"/>
<text text-anchor="middle" x="365.5208" y="-176.3" font-family="Times,serif" font-size="14.00" fill="#000000">ShinyEndNodeOnDestruction::~ShinyEndNodeOnDestruction()</text>
</g>
<!-- ShinyEndNodeOnDestruction::~ShinyEndNodeOnDestruction()&#45;&gt;void ShinyManager_endCurNode(ShinyManager*) -->
<g id="edge6" class="edge">
<title>ShinyEndNodeOnDestruction::~ShinyEndNodeOnDestruction()&#45;&gt;void ShinyManager_endCurNode(ShinyManager*)</title>
<path fill="none" stroke="#000000" d="M602.854,-180C657.7112,-180 715.5852,-180 768.8065,-180"/>
<polygon fill="#000000" stroke="#000000" points="769.0367,-183.5001 779.0366,-180 769.0366,-176.5001 769.0367,-183.5001"/>
</g>
<!-- void LazyHelloWorld() -->
<g id="node8" class="node">
<title>void LazyHelloWorld()</title>
<ellipse fill="none" stroke="#000000" cx="365.5208" cy="-68" rx="94.7833" ry="18"/>
<text text-anchor="middle" x="365.5208" y="-64.3" font-family="Times,serif" font-size="14.00" fill="#000000">void LazyHelloWorld()</text>
</g>
<!-- void LazyHelloWorld()&#45;&gt;void ShinyManager_lookupAndBeginNode(ShinyManager*, _ShinyNode**, ShinyZone*) -->
<g id="edge9" class="edge">
<title>void LazyHelloWorld()&#45;&gt;void ShinyManager_lookupAndBeginNode(ShinyManager*, _ShinyNode**, ShinyZone*)</title>
<path fill="none" stroke="#000000" d="M447.0372,-77.2802C525.8017,-86.2423 633.9388,-98.532 638.7497,-99 680.4084,-103.0522 725.0425,-106.9667 767.6589,-110.4987"/>
<polygon fill="#000000" stroke="#000000" points="767.613,-114.0067 777.8669,-111.3406 768.1885,-107.0304 767.613,-114.0067"/>
</g>
<!-- void millisleep(unsigned int) -->
<g id="node9" class="node">
<title>void millisleep(unsigned int)</title>
<ellipse fill="none" stroke="#000000" cx="971.5202" cy="-72" rx="113.18" ry="18"/>
<text text-anchor="middle" x="971.5202" y="-68.3" font-family="Times,serif" font-size="14.00" fill="#000000">void millisleep(unsigned int)</text>
</g>
<!-- void LazyHelloWorld()&#45;&gt;void millisleep(unsigned int) -->
<g id="edge7" class="edge">
<title>void LazyHelloWorld()&#45;&gt;void millisleep(unsigned int)</title>
<path fill="none" stroke="#000000" d="M460.5413,-68.6272C565.0618,-69.3171 733.388,-70.4282 848.0567,-71.1851"/>
<polygon fill="#000000" stroke="#000000" points="848.2664,-74.6864 858.2893,-71.2526 848.3127,-67.6866 848.2664,-74.6864"/>
</g>
<!-- ShinyManager&amp; _ZTW14Shiny_instance() -->
<g id="node10" class="node">
<title>ShinyManager&amp; _ZTW14Shiny_instance()</title>
<ellipse fill="none" stroke="#000000" cx="971.5202" cy="-18" rx="165.1707" ry="18"/>
<text text-anchor="middle" x="971.5202" y="-14.3" font-family="Times,serif" font-size="14.00" fill="#000000">ShinyManager&amp; _ZTW14Shiny_instance()</text>
</g>
<!-- void LazyHelloWorld()&#45;&gt;ShinyManager&amp; _ZTW14Shiny_instance() -->
<g id="edge8" class="edge">
<title>void LazyHelloWorld()&#45;&gt;ShinyManager&amp; _ZTW14Shiny_instance()</title>
<path fill="none" stroke="#000000" d="M452.2679,-60.6304C505.9761,-56.0844 576.3641,-50.1566 638.7497,-45 700.8646,-39.8657 769.5093,-34.281 828.2394,-29.5301"/>
<polygon fill="#000000" stroke="#000000" points="828.6441,-33.0089 838.3295,-28.7141 828.0799,-26.0316 828.6441,-33.0089"/>
</g>
<!-- void HelloWorld() -->
<g id="node11" class="node">
<title>void HelloWorld()</title>
<ellipse fill="none" stroke="#000000" cx="365.5208" cy="-122" rx="77.1866" ry="18"/>
<text text-anchor="middle" x="365.5208" y="-118.3" font-family="Times,serif" font-size="14.00" fill="#000000">void HelloWorld()</text>
</g>
<!-- void HelloWorld()&#45;&gt;void ShinyManager_lookupAndBeginNode(ShinyManager*, _ShinyNode**, ShinyZone*) -->
<g id="edge13" class="edge">
<title>void HelloWorld()&#45;&gt;void ShinyManager_lookupAndBeginNode(ShinyManager*, _ShinyNode**, ShinyZone*)</title>
<path fill="none" stroke="#000000" d="M442.8865,-122.5107C492.2308,-122.8364 559.9935,-123.2836 630.5468,-123.7493"/>
<polygon fill="#000000" stroke="#000000" points="630.9518,-127.252 640.9747,-123.8182 630.998,-120.2522 630.9518,-127.252"/>
</g>
<!-- void HelloWorld()&#45;&gt;void ShinyManager_endCurNode(ShinyManager*) -->
<g id="edge10" class="edge">
<title>void HelloWorld()&#45;&gt;void ShinyManager_endCurNode(ShinyManager*)</title>
<path fill="none" stroke="#000000" d="M434.2344,-130.4127C489.4499,-137.024 569.0205,-146.2173 638.7497,-153 694.6889,-158.4413 755.9933,-163.6342 810.5731,-167.9863"/>
<polygon fill="#000000" stroke="#000000" points="810.4376,-171.4864 820.6833,-168.789 810.9917,-164.5084 810.4376,-171.4864"/>
</g>
<!-- void HelloWorld()&#45;&gt;void millisleep(unsigned int) -->
<g id="edge11" class="edge">
<title>void HelloWorld()&#45;&gt;void millisleep(unsigned int)</title>
<path fill="none" stroke="#000000" d="M438.2879,-115.8144C493.3333,-111.1499 570.7897,-104.6174 638.7497,-99 712.4989,-92.9041 795.4532,-86.1731 860.0889,-80.9567"/>
<polygon fill="#000000" stroke="#000000" points="860.6149,-84.4257 870.301,-80.1328 860.0519,-77.4484 860.6149,-84.4257"/>
</g>
<!-- void HelloWorld()&#45;&gt;ShinyManager&amp; _ZTW14Shiny_instance() -->
<g id="edge12" class="edge">
<title>void HelloWorld()&#45;&gt;ShinyManager&amp; _ZTW14Shiny_instance()</title>
<path fill="none" stroke="#000000" d="M437.732,-128.4898C487.3717,-129.5867 553.0383,-124.1301 602.7497,-95 626.3752,-81.1558 614.9032,-58.46 638.7497,-45 702.8457,-8.8213 785.2296,-1.8904 851.9891,-4.0935"/>
<polygon fill="#000000" stroke="#000000" points="852.0095,-7.5971 862.1422,-4.5023 852.2911,-.6028 852.0095,-7.5971"/>
</g>
<!-- int main() -->
<g id="node12" class="node">
<title>int main()</title>
<ellipse fill="#ff0000" stroke="#ff0000" cx="46.1459" cy="-68" rx="46.2923" ry="18"/>
<text text-anchor="middle" x="46.1459" y="-64.3" font-family="Times,serif" font-size="14.00" fill="#000000">int main()</text>
</g>
<!-- int main()&#45;&gt;void LazyHelloWorld() -->
<g id="edge15" class="edge">
<title>int main()&#45;&gt;void LazyHelloWorld()</title>
<path fill="none" stroke="#000000" d="M92.5858,-68C136.4062,-68 203.6675,-68 260.4523,-68"/>
<polygon fill="#000000" stroke="#000000" points="260.56,-71.5001 270.5599,-68 260.5599,-64.5001 260.56,-71.5001"/>
</g>
<!-- int main()&#45;&gt;ShinyManager&amp; _ZTW14Shiny_instance() -->
<g id="edge16" class="edge">
<title>int main()&#45;&gt;ShinyManager&amp; _ZTW14Shiny_instance()</title>
<path fill="none" stroke="#000000" d="M78.3682,-55.0041C93.298,-49.6114 111.4318,-43.9361 128.2918,-41 365.7661,.3546 646.4523,-1.961 816.6144,-8.8866"/>
<polygon fill="#000000" stroke="#000000" points="816.5133,-12.3853 826.6507,-9.3056 816.8054,-5.3914 816.5133,-12.3853"/>
</g>
<!-- int main()&#45;&gt;void HelloWorld() -->
<g id="edge14" class="edge">
<title>int main()&#45;&gt;void HelloWorld()</title>
<path fill="none" stroke="#000000" d="M79.2892,-80.6062C94.0907,-85.7883 111.867,-91.4056 128.2918,-95 178.1728,-105.9159 234.9777,-112.5783 280.4937,-116.553"/>
<polygon fill="#000000" stroke="#000000" points="280.3598,-120.0541 290.6192,-117.4095 280.9498,-113.079 280.3598,-120.0541"/>
</g>
</g>
</svg>
